<svg width="25" height="24" fill="none" xmlns="http://www.w3.org/2000/svg"><path d="M12.75 2.4c-5.292 0-9.6 4.308-9.6 9.6a.8.8 0 1 0 1.6 0c0-4.428 3.572-8 8-8s8 3.572 8 8a.8.8 0 1 0 1.6 0c0-5.292-4.308-9.6-9.6-9.6ZM4.533 14.328l-.64.322-.127.705.489.523.278.05.64-.322.127-.704-.49-.524-.277-.05Zm15.489 1.797-.64.32-.127.706.489.524.278.05.64-.322.127-.705-.489-.523-.278-.05Zm-13.838.92-.64.322-.127.705.49.523.277.05.641-.322.127-.704-.49-.524-.278-.05Zm11.61 1.345-.64.322-.128.705.49.523.278.05.64-.321.127-.705-.49-.523-.277-.05Zm-9.102.613-.642.322-.125.705.489.523.278.05.64-.32.127-.707-.49-.523-.277-.05Zm6.216.725-.64.322-.127.706.489.524.278.048.64-.32.127-.706-.49-.524-.277-.05Zm-3.175.208-.64.322-.127.706.49.523.277.049.64-.32.127-.707-.49-.523-.277-.05Z" fill="#25272E"/></svg>