<svg width="25" height="17" viewBox="0 0 25 17" fill="none" xmlns="http://www.w3.org/2000/svg">
<g opacity="0.49">
<path fill-rule="evenodd" clip-rule="evenodd" d="M7.12468 16.2641C8.97206 16.2641 10.474 14.7853 10.474 12.9551C10.474 11.1248 8.97206 9.646 7.12468 9.646C5.2773 9.646 3.77539 11.1248 3.77539 12.9551C3.77539 14.7853 5.2773 16.2641 7.12468 16.2641ZM7.12468 10.6699C8.41548 10.6699 9.45707 11.6955 9.45707 12.9551C9.45707 14.2146 8.41548 15.2402 7.12468 15.2402C5.83387 15.2402 4.79228 14.2146 4.79228 12.9551C4.79228 11.6955 5.83387 10.6699 7.12468 10.6699Z" fill="white"/>
<path fill-rule="evenodd" clip-rule="evenodd" d="M17.7775 16.2646C19.6249 16.2646 21.1268 14.7858 21.1268 12.9555C21.1268 11.1253 19.6249 9.64648 17.7775 9.64648C15.9301 9.64648 14.4282 11.1253 14.4282 12.9555C14.4282 14.7858 15.9301 16.2646 17.7775 16.2646ZM17.7776 10.6703C19.0684 10.6703 20.11 11.6958 20.11 12.9554C20.11 14.215 19.0684 15.2405 17.7776 15.2405C16.4868 15.2405 15.4452 14.215 15.4452 12.9554C15.4452 11.6958 16.4868 10.6703 17.7776 10.6703Z" fill="white"/>
<path d="M20.9507 13.4667C21.138 13.4666 21.3293 13.4659 21.3627 13.4637C21.8862 13.4305 22.3546 13.1238 22.5911 12.6549L23.5381 10.7835C24.0542 9.76323 24.3231 8.63748 24.3231 7.49632C24.3231 6.53643 23.8923 5.62686 23.1485 5.01371L19.065 1.65026C18.4796 1.1684 17.7433 0.904785 16.9835 0.904785H7.27909C6.19434 0.904785 5.20096 1.51151 4.71422 2.47496L1.23896 9.34562C1.03902 9.74089 0.93457 10.1782 0.93457 10.6212C0.93457 12.1945 2.22159 13.4667 3.80371 13.4667H4.26086C4.54167 13.4667 4.76931 13.2375 4.76931 12.9548C4.76931 12.672 4.54167 12.4428 4.26086 12.4428H3.80371C2.77905 12.4428 1.95146 11.6247 1.95146 10.6212C1.95146 10.3399 2.01789 10.0618 2.14509 9.81033L5.62047 2.93944C5.93296 2.3209 6.57507 1.92872 7.27909 1.92872H16.9835C17.5091 1.92872 18.0179 2.1109 18.4213 2.44292L22.5045 5.80614C23.013 6.22531 23.3062 6.84441 23.3062 7.49632C23.3062 8.47578 23.0753 9.4423 22.6321 10.3187L21.6847 12.1906C21.6118 12.3352 21.465 12.4313 21.2988 12.4418C21.3004 12.4417 21.1437 12.4423 20.9507 12.4428C20.6698 12.4428 20.4422 12.672 20.4422 12.9548C20.4422 13.2375 20.6698 13.4667 20.9507 13.4667Z" fill="white"/>
<path d="M9.96548 13.4678H14.9369C15.2178 13.4678 15.4454 13.2386 15.4454 12.9558C15.4454 12.6731 15.2178 12.4438 14.9369 12.4438H9.96548C9.68467 12.4438 9.45703 12.6731 9.45703 12.9558C9.45703 13.2386 9.68467 13.4678 9.96548 13.4678Z" fill="white"/>
<path d="M16.9982 5.43986L17.9462 1.61708C18.0143 1.34276 17.8485 1.06483 17.5761 0.996331C17.3037 0.927827 17.0277 1.09468 16.9596 1.36901L16.0114 5.19262L15.5079 7.23762C15.4284 7.5605 15.671 7.87278 16.0014 7.87278H23.5873C23.8681 7.87278 24.0957 7.64357 24.0957 7.36081C24.0957 7.07806 23.8681 6.84885 23.5873 6.84885H18.1023C17.3642 6.84885 16.8217 6.15656 16.9982 5.43986Z" fill="white"/>
<path d="M8.19001 3.00244H1.44302C1.16221 3.00244 0.93457 3.23166 0.93457 3.51441C0.93457 3.79716 1.16221 4.02638 1.44302 4.02638H8.19001C8.47082 4.02638 8.69846 3.79716 8.69846 3.51441C8.69846 3.23166 8.47082 3.00244 8.19001 3.00244Z" fill="white"/>
<path d="M6.41449 5.80029H1.44302C1.16221 5.80029 0.93457 6.02951 0.93457 6.31226C0.93457 6.59501 1.16221 6.82423 1.44302 6.82423H6.41449C6.69529 6.82423 6.92293 6.59501 6.92293 6.31226C6.92293 6.02951 6.69529 5.80029 6.41449 5.80029Z" fill="white"/>
<path d="M4.28386 8.59619H1.44302C1.16221 8.59619 0.93457 8.82541 0.93457 9.10816C0.93457 9.39091 1.16221 9.62013 1.44302 9.62013H4.28386C4.56466 9.62013 4.7923 9.39091 4.7923 9.10816C4.7923 8.82541 4.56466 8.59619 4.28386 8.59619Z" fill="white"/>
</g>
</svg>
