<svg width="86" height="87" viewBox="0 0 86 87" fill="none" xmlns="http://www.w3.org/2000/svg">
<path d="M42.8188 86.3314C65.3047 86.3314 83.7321 68.8341 85.4046 46.6237C85.5632 44.5175 84.693 42.485 83.2046 40.9864L45.1653 2.68351C43.6634 1.17125 41.6141 0.284573 39.4892 0.449561C17.4575 2.1602 0.109375 20.7032 0.109375 43.3261C0.109375 67.0773 19.2311 86.3314 42.8188 86.3314Z" fill="#1F2533"/>
<path d="M9.1787 47.9269C10.3787 48.8069 12.0387 49.3269 13.5987 49.3269C16.0787 49.3269 17.7787 48.0069 17.7787 46.0069C17.7787 42.6269 13.6787 42.9069 13.6787 41.9269C13.6787 41.5269 14.0587 41.3469 14.7387 41.3469C15.6387 41.3469 16.6987 41.6469 17.2587 42.0869L18.6187 39.6869C17.5187 38.9469 16.1587 38.5469 14.8387 38.5469C12.4187 38.5469 10.4787 39.8869 10.4787 41.9269C10.4787 45.1669 14.5587 44.9069 14.5587 45.9269C14.5587 46.3469 14.1787 46.5269 13.4587 46.5269C12.5187 46.5269 11.4387 46.1669 10.8187 45.6069L9.1787 47.9269ZM22.3142 49.1269C22.4142 48.6069 22.4542 48.2469 22.4542 48.2469H22.4942C23.1742 48.9869 24.1542 49.3269 25.1942 49.3269C28.0142 49.3269 30.8342 46.7669 30.8342 43.0269C30.8342 40.3069 29.3342 38.5469 26.8542 38.5469C25.6342 38.5469 24.4742 39.0869 23.7542 39.9669H23.7142C23.7142 39.9669 23.8342 39.6469 23.8942 39.3069L23.9942 38.7869H20.8742L18.1142 53.0869H21.5542L22.3142 49.1269ZM23.1542 44.6469C23.1542 42.6269 24.6742 41.4669 25.7342 41.4669C26.7342 41.4669 27.3342 42.1669 27.3342 43.2869C27.3342 45.3069 25.9542 46.4669 24.7542 46.4669C23.6342 46.4669 23.1542 45.6469 23.1542 44.6469ZM31.9104 44.8269C31.9104 47.2469 33.6504 49.3269 37.1704 49.3269C38.7504 49.3269 40.5304 48.6069 41.3304 47.9869L40.4504 45.4069C39.5704 45.9669 38.4504 46.4469 37.3904 46.4469C36.1104 46.4469 35.3704 45.7469 35.3704 44.7269V44.6069H41.8704C42.0904 43.9269 42.2504 43.2869 42.2504 42.5869C42.2504 40.2069 40.7704 38.5469 37.8504 38.5469C34.4504 38.5469 31.9104 41.2469 31.9104 44.8269ZM35.8304 42.6269C36.1504 41.7469 36.7904 41.0869 37.7904 41.0869C38.4904 41.0869 38.8904 41.5669 38.8904 42.2669C38.8904 42.4269 38.8904 42.5069 38.8704 42.6269H35.8304ZM43.2385 44.6069C43.2385 47.2269 44.9785 49.3269 48.3785 49.3269C49.9785 49.3269 51.7985 48.6669 52.8185 47.8269L51.9385 45.2069C51.0385 45.8469 49.9385 46.4469 48.8585 46.4469C47.3785 46.4469 46.7385 45.4669 46.7385 44.4069C46.7385 43.0469 47.8985 41.4269 49.8385 41.4269C50.5985 41.4269 51.5785 41.7469 52.1385 42.2269L53.8785 40.0669C52.7785 38.9669 51.1785 38.5469 49.6785 38.5469C45.7585 38.5469 43.2385 41.6669 43.2385 44.6069ZM56.2328 37.4869H59.6128L60.1328 34.7869H56.7528L56.2328 37.4869ZM53.9528 49.0869H57.3928L59.3928 38.7869H55.9328L53.9528 49.0869ZM59.554 46.6069C59.554 48.3469 60.974 49.3269 62.514 49.3269C64.034 49.3269 65.114 48.3869 65.554 47.8269H65.594C65.594 47.8269 65.474 48.1269 65.414 48.4669L65.294 49.0869H68.454L69.654 42.8269C69.714 42.4669 69.754 42.1269 69.754 41.8269C69.754 39.2269 67.414 38.5469 65.674 38.5469C63.914 38.5469 61.974 39.2869 61.274 39.6869L62.014 42.2869C62.934 41.8269 63.954 41.3469 64.994 41.3469C65.834 41.3469 66.314 41.6469 66.314 42.2469C66.314 42.4069 66.294 42.4869 66.254 42.6669H66.094C63.454 42.6669 59.554 43.5669 59.554 46.6069ZM62.934 46.0269C62.934 44.8069 64.794 44.6469 65.534 44.6469H65.894L65.834 44.9669C65.674 45.8069 64.694 46.7469 63.794 46.7469C63.134 46.7469 62.934 46.4069 62.934 46.0269ZM71.2715 46.3469C71.2715 48.5069 72.7115 49.1869 74.5315 49.1869C74.8715 49.1869 75.2715 49.1469 75.4715 49.1269L76.0515 46.1269C75.8315 46.1469 75.7315 46.1469 75.6315 46.1469C75.2115 46.1469 74.8515 46.0069 74.8515 45.4869C74.8515 45.3069 74.8915 44.9669 74.9515 44.7069L76.8715 34.7869H73.4115L71.4115 45.0869C71.3115 45.5669 71.2715 45.9869 71.2715 46.3469Z" fill="#E06182"/>
<path d="M43.6412 3.00198C49.5814 21.7316 64.2747 36.5236 82.8774 42.5007C82.9464 42.5229 83.0037 42.5718 83.0362 42.6366L83.9298 44.418C83.9813 44.5205 84.1365 44.459 84.1038 44.3491L83.9004 43.8371L83.0813 41.7752C82.6824 40.771 82.0842 39.858 81.3228 39.0913L64.6811 22.3344L48.4109 5.95138L45.8577 3.74776C45.1916 3.1729 44.4353 2.71186 43.6192 2.38319L42.3095 1.85575C42.1237 1.80337 42.021 2.06379 42.1926 2.15231L43.4886 2.82082C43.5615 2.85842 43.6164 2.92379 43.6412 3.00198Z" fill="#494F5F"/>
</svg>
