<svg width="40" height="40" fill="none" xmlns="http://www.w3.org/2000/svg"><circle cx="20" cy="20" r="20" fill="#ECEBEA"/><path d="M20 10.172c3.204 0 3.58.014 4.846.071 1.17.053 1.804.248 2.227.414.562.22.962.476 1.38.895.42.419.681.819.896 1.38.162.424.361 1.057.414 2.228.057 1.266.071 1.642.071 4.846 0 3.203-.014 3.579-.071 4.845-.053 1.171-.248 1.804-.414 2.228a3.721 3.721 0 0 1-.895 1.38c-.42.419-.819.68-1.38.895-.424.162-1.057.362-2.228.414-1.266.057-1.642.071-4.846.071-3.203 0-3.58-.014-4.845-.071-1.171-.052-1.804-.248-2.228-.414a3.722 3.722 0 0 1-1.38-.895 3.664 3.664 0 0 1-.895-1.38c-.162-.424-.362-1.057-.414-2.228-.057-1.266-.072-1.642-.072-4.845 0-3.204.015-3.58.072-4.846.052-1.17.247-1.804.414-2.228.219-.561.476-.961.895-1.38.419-.419.819-.68 1.38-.895.424-.162 1.057-.361 2.228-.414 1.266-.062 1.647-.071 4.845-.071Zm0-2.161c-3.255 0-3.665.014-4.945.071-1.276.057-2.147.262-2.908.557a5.843 5.843 0 0 0-2.123 1.385 5.947 5.947 0 0 0-1.385 2.123c-.296.762-.5 1.633-.557 2.913-.057 1.276-.072 1.685-.072 4.94 0 3.256.015 3.666.072 4.946.057 1.276.261 2.147.557 2.913.304.79.718 1.457 1.385 2.123a5.946 5.946 0 0 0 2.123 1.385c.761.295 1.632.5 2.913.557 1.28.057 1.685.072 4.945.072 3.26 0 3.665-.015 4.946-.072 1.275-.057 2.146-.262 2.913-.557a5.844 5.844 0 0 0 2.122-1.385 5.947 5.947 0 0 0 1.386-2.123c.295-.761.5-1.632.556-2.913.058-1.28.072-1.685.072-4.945 0-3.26-.014-3.665-.072-4.946-.057-1.275-.261-2.146-.556-2.913a5.844 5.844 0 0 0-1.386-2.123 5.948 5.948 0 0 0-2.122-1.385c-.762-.295-1.633-.5-2.913-.557-1.286-.052-1.695-.066-4.95-.066Z" fill="#585A59"/><path d="M20.001 13.848a6.16 6.16 0 1 0 .002 12.32A6.16 6.16 0 0 0 20 13.848Zm0 10.152a3.998 3.998 0 1 1 0-7.995A3.998 3.998 0 0 1 20 24ZM26.404 15.037a1.437 1.437 0 1 0 0-2.875 1.437 1.437 0 0 0 0 2.875Z" fill="#585A59"/></svg>