<svg width="22" height="15" fill="none" xmlns="http://www.w3.org/2000/svg"><path fill-rule="evenodd" clip-rule="evenodd" d="M5.716 14.5c1.705 0 3.092-1.348 3.092-3.016S7.421 8.468 5.716 8.468c-1.706 0-3.093 1.348-3.093 3.016S4.01 14.5 5.716 14.5Zm0-5.1c1.191 0 2.153.935 2.153 2.083 0 1.148-.962 2.083-2.153 2.083-1.192 0-2.154-.935-2.154-2.083 0-1.148.962-2.083 2.154-2.083ZM15.552 14.5c1.706 0 3.092-1.348 3.092-3.016s-1.386-3.016-3.092-3.016c-1.706 0-3.092 1.348-3.092 3.016s1.386 3.016 3.092 3.016Zm0-5.1c1.192 0 2.154.935 2.154 2.083 0 1.148-.962 2.083-2.153 2.083-1.192 0-2.154-.935-2.154-2.083 0-1.148.962-2.083 2.154-2.083Z" fill="#918784"/><path d="M18.481 11.95c.173 0 .35 0 .38-.002.484-.03.917-.31 1.135-.738l.874-1.705c.477-.93.725-1.957.725-2.997 0-.875-.397-1.704-1.084-2.263L16.74 1.18A3.05 3.05 0 0 0 14.817.5h-8.96A2.655 2.655 0 0 0 3.49 1.931L.28 8.194A2.55 2.55 0 0 0 0 9.357c0 1.434 1.188 2.593 2.65 2.593h.421c.26 0 .47-.209.47-.466a.468.468 0 0 0-.47-.467H2.65c-.946 0-1.71-.746-1.71-1.66 0-.257.061-.51.179-.74l3.209-6.262a1.716 1.716 0 0 1 1.531-.922h8.96c.486 0 .956.166 1.328.469l3.77 3.066c.47.382.74.946.74 1.54a5.64 5.64 0 0 1-.622 2.573l-.875 1.706a.428.428 0 0 1-.356.23h-.322c-.259 0-.47.209-.47.467 0 .257.211.466.47.466Z" fill="#918784"/><path d="M8.34 11.95h4.59c.259 0 .469-.209.469-.467a.468.468 0 0 0-.47-.466H8.34c-.26 0-.47.209-.47.466 0 .258.21.467.47.467ZM14.832 4.634l.876-3.485a.47.47 0 0 0-.911-.226l-.876 3.485-.465 1.864a.467.467 0 0 0 .456.58h7.004c.26 0 .47-.21.47-.467a.468.468 0 0 0-.47-.467h-6.404l.32-1.284ZM6.7 2.412H.47c-.26 0-.47.209-.47.467s.21.466.47.466H6.7c.258 0 .469-.208.469-.466a.468.468 0 0 0-.47-.467ZM5.06 4.962H.47c-.26 0-.47.21-.47.467 0 .258.21.467.47.467h4.59c.259 0 .47-.21.47-.467a.468.468 0 0 0-.47-.467ZM3.092 7.51H.47C.21 7.51 0 7.72 0 7.978c0 .258.21.467.47.467h2.622c.26 0 .47-.209.47-.467a.468.468 0 0 0-.47-.466Z" fill="#918784"/></svg>