<svg width="136" height="33" fill="none" xmlns="http://www.w3.org/2000/svg"><path fill-rule="evenodd" clip-rule="evenodd" d="M13.104 20.586c.779-1.636 1.169-3.455 1.169-5.46 0-1.809-.282-3.282-.844-4.416-.89-1.787-2.426-2.68-4.605-2.68-1.933 0-3.339.76-4.218 2.28-.878 1.522-1.318 3.357-1.318 5.505 0 2.065.44 3.784 1.318 5.16.88 1.376 2.272 2.064 4.184 2.064 2.096 0 3.535-.818 4.314-2.453ZM14.39 5.82h3.2v22.206c0 1.414-.226 2.473-.676 3.173-.747 1.185-2.162 1.777-4.248 1.777-.154 0-.317-.006-.489-.018a31.7 31.7 0 0 1-.809-.072v-2.829c1.434-.048 2.296-.178 2.587-.39.29-.212.435-.873.435-1.985v-3.783c-1.08.958-2.806 1.95-5.902 1.95-2.6 0-4.665-.903-6.195-2.707C.764 21.336 0 18.912 0 15.869c0-3.26.806-5.855 2.417-7.788C4.03 6.15 6.194 5.184 8.913 5.184c2.421 0 4.226.867 5.478 1.874V5.82ZM107.179 13.742c-.13-1.414-.43-2.544-.9-3.39-.869-1.57-2.32-2.356-4.353-2.356-1.457 0-2.679.54-3.666 1.622-.986 1.082-1.51 2.457-1.568 4.124h10.487Zm-1.147-7.622c1.26.646 2.22 1.483 2.88 2.51.636.979 1.06 2.121 1.271 3.426.189.895.284 2.32.284 4.278H96.621c.058 1.977.511 3.561 1.358 4.754.846 1.194 2.157 1.791 3.933 1.791 1.656 0 2.98-.564 3.967-1.693a5.823 5.823 0 0 0 1.175-2.277h3.147c-.084.713-.359 1.508-.827 2.384-.468.876-.99 1.592-1.566 2.148-.965.967-2.159 1.62-3.582 1.957-.764.194-1.628.29-2.593.29-2.355 0-4.35-.878-5.987-2.637-1.638-1.758-2.456-4.22-2.456-7.387 0-3.118.825-5.65 2.473-7.596 1.649-1.945 3.804-2.917 6.466-2.917 1.342 0 2.643.323 3.903.969ZM40.487 13.743c-.13-1.414-.43-2.544-.9-3.39-.868-1.57-2.32-2.356-4.352-2.356-1.457 0-2.68.54-3.667 1.622-.986 1.082-1.51 2.457-1.567 4.124h10.486Zm-1.146-7.622c1.26.646 2.22 1.483 2.88 2.51.635.979 1.06 2.121 1.27 3.426.19.895.285 2.32.285 4.278H29.929c.059 1.975.512 3.56 1.358 4.753.847 1.194 2.158 1.791 3.933 1.791 1.657 0 2.98-.565 3.968-1.694a5.824 5.824 0 0 0 1.175-2.276h3.146c-.083.713-.358 1.508-.827 2.384-.468.876-.99 1.592-1.566 2.148-.964.967-2.158 1.62-3.581 1.957-.765.194-1.629.29-2.593.29-2.355 0-4.35-.878-5.988-2.637-1.637-1.758-2.455-4.22-2.455-7.386 0-3.118.825-5.65 2.473-7.596 1.648-1.945 3.803-2.918 6.466-2.918 1.341 0 2.643.323 3.903.97ZM58.905 8.28c-1.434.049-2.296.179-2.586.39-.29.212-.436.873-.436 1.985v14.556h-3.2v-14.9c0-1.414.226-2.471.676-3.173.747-1.184 2.163-1.776 4.248-1.776.154 0 .318.006.489.018.172.012.441.036.809.073V8.28ZM85.15 25.225 81.49 9.926l-3.715 15.3h-3.59l-3.732-15.209-3.893 15.208h-3.2l5.528-19.413h3.323l3.875 15.026 3.75-15.026h3.324l5.493 19.413H85.15ZM135.817 25.225h-3.751l-9.331-14.882-.071-.103v14.985h-3.289V5.812h3.751l9.349 14.881.071.11V5.811h3.271v19.413ZM29.45 2.588h11.375V0H29.449v2.588Z" fill="#1F2533"/></svg>