<svg width="15" height="15" fill="none" xmlns="http://www.w3.org/2000/svg"><path d="M15 7.5A7.5 7.5 0 0 0 7.5 0a7.5 7.5 0 0 0-1.172 14.91V9.667H4.424V7.5h1.904V5.848c0-1.88 1.12-2.918 2.833-2.918.82 0 1.679.146 1.679.146v1.846h-.946c-.932 0-1.222.578-1.222 1.172V7.5h2.08l-.333 2.168H8.672v5.241A7.501 7.501 0 0 0 15 7.5Z" fill="#1877F2"/><path d="m10.42 9.668.332-2.168h-2.08V6.094c0-.594.29-1.172 1.222-1.172h.946V3.076S9.98 2.93 9.16 2.93c-1.714 0-2.833 1.038-2.833 2.918V7.5H4.424v2.168h1.904v5.241a7.552 7.552 0 0 0 2.344 0V9.668h1.747Z" fill="#fff"/></svg>