<svg width="22" height="22" fill="none" xmlns="http://www.w3.org/2000/svg"><path d="M9.5 11h10.666H9.5Z" fill="#000"/><path d="M9.5 11h10.666" stroke="#25272E" stroke-width="1.5" stroke-miterlimit="10" stroke-linecap="round" stroke-linejoin="round"/><path d="M1.833 11H5 1.833Z" fill="#000"/><path d="M1.833 11H5" stroke="#25272E" stroke-width="1.5" stroke-miterlimit="10" stroke-linecap="round" stroke-linejoin="round"/><path d="M7.333 12.833a1.833 1.833 0 1 1 0-3.666 1.833 1.833 0 0 1 0 3.666Z" stroke="#25272E" stroke-width="1.35" stroke-miterlimit="10" stroke-linecap="round" stroke-linejoin="round"/><path d="M1.833 4.583H12.5 1.833Z" fill="#000"/><path d="M1.833 4.583H12.5" stroke="#25272E" stroke-width="1.5" stroke-miterlimit="10" stroke-linecap="round" stroke-linejoin="round"/><path d="M17 4.583h3.166H17Z" fill="#000"/><path d="M17 4.583h3.166" stroke="#25272E" stroke-width="1.5" stroke-miterlimit="10" stroke-linecap="round" stroke-linejoin="round"/><path d="M14.667 6.417a1.833 1.833 0 1 1 0-3.667 1.833 1.833 0 0 1 0 3.667Z" stroke="#25272E" stroke-width="1.35" stroke-miterlimit="10" stroke-linecap="round" stroke-linejoin="round"/><path d="M1.833 17.417H12.5 1.833Z" fill="#000"/><path d="M1.833 17.417H12.5" stroke="#25272E" stroke-width="1.5" stroke-miterlimit="10" stroke-linecap="round" stroke-linejoin="round"/><path d="M17 17.417h3.166H17Z" fill="#000"/><path d="M17 17.417h3.166" stroke="#25272E" stroke-width="1.5" stroke-miterlimit="10" stroke-linecap="round" stroke-linejoin="round"/><path d="M14.667 19.25a1.833 1.833 0 1 1 0-3.667 1.833 1.833 0 0 1 0 3.667Z" stroke="#25272E" stroke-width="1.35" stroke-miterlimit="10" stroke-linecap="round" stroke-linejoin="round"/></svg>