<svg width="26" height="22" fill="none" xmlns="http://www.w3.org/2000/svg"><path d="M13 5.717a.5.5 0 0 0 0 1v-1Zm-5.73-2.63v.5a.5.5 0 0 0 .37-.163l-.37-.337ZM9.18 1V.5a.5.5 0 0 0-.37.162L9.18 1Zm7.64 0 .37-.338A.5.5 0 0 0 16.82.5V1Zm1.91 2.087-.37.337a.5.5 0 0 0 .37.163v-.5ZM3.087 20.327a.5.5 0 1 0 0 1v-1ZM13 5.716c-3.44 0-6.24 2.8-6.24 6.24h1A5.247 5.247 0 0 1 13 6.716v-1Zm-6.24 6.24c0 3.44 2.8 6.239 6.24 6.239v-1a5.247 5.247 0 0 1-5.24-5.24h-1ZM13 18.195c3.44 0 6.24-2.8 6.24-6.24h-1a5.247 5.247 0 0 1-5.24 5.24v1Zm6.24-6.24c0-3.44-2.8-6.239-6.24-6.239v1a5.247 5.247 0 0 1 5.24 5.24h1Zm-16.153 8.37c-.877 0-1.587-.71-1.587-1.587h-1a2.586 2.586 0 0 0 2.587 2.587v-1ZM1.5 18.74V5.174h-1v13.565h1Zm0-13.565c0-.877.71-1.587 1.587-1.587v-1A2.586 2.586 0 0 0 .5 5.174h1Zm1.587-1.587H7.27v-1H3.087v1Zm4.552-.163 1.91-2.086L8.81.662 6.9 2.75l.738.675ZM9.18 1.5h7.641v-1H9.18v1Zm7.272-.162 1.91 2.086.738-.675-1.91-2.087-.738.676Zm2.279 2.249h4.183v-1H18.73v1Zm4.183 0c.877 0 1.587.71 1.587 1.587h1a2.586 2.586 0 0 0-2.587-2.587v1ZM24.5 5.174v13.565h1V5.174h-1Zm0 13.565c0 .877-.71 1.587-1.587 1.587v1A2.586 2.586 0 0 0 25.5 18.74h-1Zm-1.587 1.587H3.087v1h19.826v-1Z" fill="#25272E"/></svg>