<svg width="26" height="22" fill="none" xmlns="http://www.w3.org/2000/svg"><path clip-rule="evenodd" d="M10.391 17.696a3.13 3.13 0 1 1-6.26 0 3.13 3.13 0 0 1 6.26 0ZM21.87 17.696a3.13 3.13 0 1 1-6.26 0 3.13 3.13 0 0 1 6.26 0Z" stroke="#25272E" stroke-linecap="round" stroke-linejoin="round"/><path d="m3.087 10.392-1.82 3.638a2.532 2.532 0 0 0 2.265 3.666h.598M22.268 17.696c.396 0 .758-.224.934-.577l1.016-2.032A7.415 7.415 0 0 0 25 11.772c0-.875-.388-1.705-1.06-2.265l-4.38-3.65a2.95 2.95 0 0 0-1.887-.683h-6.238M10.391 17.695h5.218" stroke="#25272E" stroke-linecap="round" stroke-linejoin="round"/><path clip-rule="evenodd" d="m17.696 7.26-1.044 4.175h6.261L17.696 7.26ZM1 6.217a5.217 5.217 0 1 1 10.435 0A5.217 5.217 0 0 1 1 6.217Z" stroke="#25272E" stroke-linecap="round" stroke-linejoin="round"/><path d="m3.609 6.74 1.565 1.565 3.652-3.653" stroke="#25272E" stroke-linecap="round" stroke-linejoin="round"/></svg>