<svg width="20" height="26" fill="none" xmlns="http://www.w3.org/2000/svg"><path clip-rule="evenodd" d="M18.74 9.87c0 .747-1.125 1.336-1.31 2.026-.19.714.483 1.785.122 2.41-.367.633-1.634.584-2.149 1.097-.514.515-.464 1.782-1.098 2.149-.625.36-1.695-.312-2.409-.121-.69.184-1.28 1.308-2.026 1.308-.748 0-1.338-1.124-2.027-1.308-.714-.191-1.785.482-2.41.12-.633-.366-.584-1.633-1.097-2.148-.514-.513-1.782-.464-2.149-1.098-.36-.625.311-1.696.122-2.409C2.124 11.206 1 10.616 1 9.87c0-.748 1.124-1.337 1.309-2.027.19-.714-.483-1.785-.122-2.41.367-.633 1.635-.584 2.149-1.097.514-.514.464-1.782 1.098-2.149.625-.36 1.695.312 2.41.122C8.532 2.124 9.121 1 9.87 1c.747 0 1.337 1.124 2.026 1.309.714.19 1.785-.483 2.41-.122.633.367.584 1.635 1.097 2.149.515.513 1.782.464 2.149 1.098.36.625-.311 1.696-.121 2.41.184.689 1.308 1.278 1.308 2.026v0Z" stroke="#25272E" stroke-linecap="round" stroke-linejoin="round"/><path clip-rule="evenodd" d="M15.609 9.87c0 3.17-2.57 5.74-5.74 5.74a5.739 5.739 0 1 1 0-11.478c3.17-.001 5.74 2.568 5.74 5.738v0Z" stroke="#25272E" stroke-linecap="round" stroke-linejoin="round"/><path d="M15.087 16.13 18.739 25l-4.174-2.087L11.435 25l-2.087-6.26M4.652 16.13 1 25l4.174-2.087L8.304 25l1.566-4.174" stroke="#25272E" stroke-linecap="round" stroke-linejoin="round"/></svg>