<svg width="30" height="28" fill="none" xmlns="http://www.w3.org/2000/svg"><g filter="url(#a)"><path fill-rule="evenodd" clip-rule="evenodd" d="M19.455 4.25c3.658 0 6.2 2.841 6.233 6.58v.037c-.105 4.222-3.805 8.92-10.107 12.721a1.125 1.125 0 0 1-1.162 0C8.117 19.786 4.417 15.09 4.313 10.868v-.038c.032-3.79 2.354-6.58 5.985-6.58 1.568 0 3.424.832 4.686 1.945 1.21-1.13 2.915-1.945 4.471-1.945Z" fill="#FF323D"/></g><path fill-rule="evenodd" clip-rule="evenodd" d="M25.688 10.83c-.033-3.739-2.575-6.58-6.233-6.58-1.556 0-3.262.814-4.471 1.945-1.262-1.113-3.118-1.945-4.686-1.945-3.631 0-5.953 2.79-5.985 6.58v.037c.104 4.222 3.804 8.92 10.106 12.721.357.216.805.216 1.162 0 6.302-3.802 10.002-8.499 10.106-12.72v-.038ZM15.93 8.516c.721-1.06 2.311-2.016 3.525-2.016 2.353 0 3.953 1.781 3.982 4.33-.043 1.544-.79 3.315-2.22 5.13-1.455 1.848-3.559 3.67-6.217 5.344-2.658-1.674-4.762-3.496-6.217-5.343-1.43-1.816-2.177-3.587-2.22-5.13.014-1.274.375-2.376 1.01-3.139C8.216 6.92 9.13 6.5 10.298 6.5c1.272 0 3.103 1.02 3.768 2.01a1.125 1.125 0 0 0 1.864.006Z" fill="#fff"/><defs><filter id="a" x=".313" y=".25" width="29.375" height="27.5" filterUnits="userSpaceOnUse" color-interpolation-filters="sRGB"><feFlood flood-opacity="0" result="BackgroundImageFix"/><feColorMatrix in="SourceAlpha" values="0 0 0 0 0 0 0 0 0 0 0 0 0 0 0 0 0 0 127 0" result="hardAlpha"/><feOffset/><feGaussianBlur stdDeviation="2"/><feColorMatrix values="0 0 0 0 0.101961 0 0 0 0 0.168627 0 0 0 0 0.286275 0 0 0 0.15 0"/><feBlend in2="BackgroundImageFix" result="effect1_dropShadow_6260_1513"/><feBlend in="SourceGraphic" in2="effect1_dropShadow_6260_1513" result="shape"/></filter></defs></svg>