<svg width="28" height="28" fill="none" xmlns="http://www.w3.org/2000/svg"><path d="M8.91 2.8C5.03 2.8 1.868 5.963 1.868 9.84c0 3.49 2.707 7.038 5.282 9.87a51.446 51.446 0 0 0 5.168 4.918 2.81 2.81 0 0 0 1.504.556c.06.01.12.015.179.015.06 0 .119-.005.177-.015l.009-.002a2.81 2.81 0 0 0 1.52-.572s2.569-2.068 5.145-4.9c2.575-2.832 5.282-6.38 5.282-9.87 0-3.878-3.163-7.041-7.042-7.041-2.44 0-4.167 1.342-5.091 2.293-.924-.95-2.652-2.293-5.091-2.293Zm0 1.866c2.549 0 4.1 2.093 4.254 2.31a.934.934 0 0 0 .946.496.934.934 0 0 0 .724-.492c.147-.207 1.702-2.314 4.258-2.314a5.16 5.16 0 0 1 5.176 5.175c0 2.43-2.334 5.904-4.798 8.614a49.31 49.31 0 0 1-4.918 4.687.905.905 0 0 1-.551.19.905.905 0 0 1-.55-.19c-.017-.014-2.463-1.987-4.919-4.687-2.464-2.71-4.798-6.184-4.798-8.614A5.16 5.16 0 0 1 8.91 4.666Z" fill="#25272E"/></svg>