<svg width="49" height="17" fill="none" xmlns="http://www.w3.org/2000/svg"><path d="m18.677 1.154-6.389 15.24H8.134L4.996 4.246c-.181-.745-.362-1.016-.926-1.332-.97-.52-2.529-1.016-3.906-1.31l.09-.451H6.96c.858 0 1.625.564 1.806 1.558l1.67 8.805 4.11-10.363h4.131Zm16.324 10.272c.022-4.018-5.554-4.244-5.532-6.028.023-.542.542-1.129 1.671-1.287.564-.067 2.122-.135 3.883.678l.7-3.229c-.948-.339-2.167-.677-3.68-.677-3.883 0-6.638 2.077-6.66 5.035-.023 2.19 1.964 3.409 3.454 4.154 1.535.745 2.055 1.219 2.055 1.896-.023 1.016-1.22 1.468-2.348 1.49-1.987.023-3.139-.542-4.042-.97l-.722 3.34c.925.43 2.619.791 4.38.814 4.131 0 6.818-2.055 6.84-5.216Zm10.295 4.967h3.635l-3.183-15.24h-3.364c-.768 0-1.4.43-1.671 1.107l-5.916 14.11h4.132l.813-2.28h5.057l.497 2.303Zm-4.403-5.396 2.078-5.712 1.196 5.712h-3.274ZM24.3 1.154l-3.251 15.24H17.12l3.25-15.24h3.93Z" fill="url(#a)"/><defs><linearGradient id="a" x1=".164" y1="8.758" x2="48.931" y2="8.758" gradientUnits="userSpaceOnUse"><stop stop-color="#24215B"/><stop offset="1" stop-color="#0C509F"/></linearGradient></defs></svg>